<svg width="2" height="2" viewBox="0 0 16 16" fill="none" xmlns="http://www.w3.org/2000/svg">
<path d="M9.29768 1.63242L10.6177 4.27242C10.7977 4.63992 11.2777 4.99242 11.6827 5.05992L14.0752 5.45742C15.6052 5.71242 15.9652 6.82242 14.8627 7.91742L13.0027 9.77742C12.6877 10.0924 12.5152 10.6999 12.6127 11.1349L13.1452 13.4374C13.5652 15.2599 12.5977 15.9649 10.9852 15.0124L8.74268 13.6849C8.33768 13.4449 7.67018 13.4449 7.25768 13.6849L5.01518 15.0124C3.41018 15.9649 2.43518 15.2524 2.85518 13.4374L3.38768 11.1349C3.48518 10.6999 3.31268 10.0924 2.99768 9.77742L1.13768 7.91742C0.0426759 6.82242 0.395176 5.71242 1.92518 5.45742L4.31768 5.05992C4.71518 4.99242 5.19518 4.63992 5.37518 4.27242L6.69518 1.63242C7.41518 0.199919 8.58518 0.199919 9.29768 1.63242Z" fill="#FFCD1A"/>
</svg>
